<?xml version="1.0" encoding="UTF-8" standalone="no"?>
<svg
   xmlns:dc="http://purl.org/dc/elements/1.1/"
   xmlns:cc="http://creativecommons.org/ns#"
   xmlns:rdf="http://www.w3.org/1999/02/22-rdf-syntax-ns#"
   xmlns:svg="http://www.w3.org/2000/svg"
   xmlns="http://www.w3.org/2000/svg"
   viewBox="0 0 1000 666.66669"
   height="666.66669"
   width="1000"
   xml:space="preserve"
   id="svg2"
   version="1.1"><metadata
     id="metadata8"><rdf:RDF><cc:Work
         rdf:about=""><dc:format>image/svg+xml</dc:format><dc:type
           rdf:resource="http://purl.org/dc/dcmitype/StillImage" /></cc:Work></rdf:RDF></metadata><defs
     id="defs6" /><g
     transform="matrix(1.3333333,0,0,-1.3333333,0,666.66667)"
     id="g10"><g
       transform="scale(0.1)"
       id="g12"><path
         id="path14"
         style="fill:#ffffff;fill-opacity:1;fill-rule:nonzero;stroke:none"
         d="M 7500,0 H 0 V 5000 H 7500 V 0" /><path
         id="path16"
         style="fill:#91a8f6;fill-opacity:1;fill-rule:nonzero;stroke:none"
         d="m 5266.97,2536.18 c 0,10.73 -8.72,19.46 -19.44,19.46 -10.74,0 -19.47,-8.73 -19.47,-19.46 0,-10.73 8.73,-19.46 19.47,-19.46 10.72,0 19.44,8.73 19.44,19.46 z m 19.11,0 c 0,-21.27 -17.29,-38.57 -38.55,-38.57 -21.28,0 -38.58,17.3 -38.58,38.57 0,21.27 17.3,38.58 38.58,38.58 21.26,0 38.55,-17.31 38.55,-38.58" /><path
         id="path18"
         style="fill:#91a8f6;fill-opacity:1;fill-rule:nonzero;stroke:none"
         d="m 5934.52,3948.52 h -218.47 c -5.28,0 -9.56,-4.28 -9.56,-9.56 0,-5.27 4.28,-9.55 9.56,-9.55 h 218.47 c 5.28,0 9.56,4.28 9.56,9.55 0,5.28 -4.28,9.56 -9.56,9.56" /><path
         id="path20"
         style="fill:#91a8f6;fill-opacity:1;fill-rule:nonzero;stroke:none"
         d="m 5646.52,3948.55 h -42.68 c -5.29,0 -9.56,-4.27 -9.56,-9.55 0,-5.28 4.27,-9.56 9.56,-9.56 h 42.68 c 5.28,0 9.56,4.28 9.56,9.56 0,5.28 -4.28,9.55 -9.56,9.55" /><path
         id="path22"
         style="fill:#91a8f6;fill-opacity:1;fill-rule:nonzero;stroke:none"
         d="m 5661.19,3872.4 c 0,-5.28 -4.28,-9.56 -9.55,-9.56 h -47.78 c -5.29,0 -9.56,4.28 -9.56,9.56 0,5.28 4.27,9.56 9.56,9.56 h 47.78 c 5.27,0 9.55,-4.28 9.55,-9.56 z m 95.58,0 c 0,-5.28 -4.28,-9.56 -9.56,-9.56 h -47.79 c -5.27,0 -9.56,4.28 -9.56,9.56 0,5.28 4.29,9.56 9.56,9.56 h 47.79 c 5.28,0 9.56,-4.28 9.56,-9.56 z m 75.11,0 c 0,-5.28 -4.28,-9.56 -9.56,-9.56 h -27.33 c -5.27,0 -9.55,4.28 -9.55,9.56 0,5.28 4.28,9.56 9.55,9.56 h 27.33 c 5.28,0 9.56,-4.28 9.56,-9.56" /><path
         id="path24"
         style="fill:#91a8f6;fill-opacity:1;fill-rule:nonzero;stroke:none"
         d="m 2390.01,3309.6 c -5.27,0 -9.56,-4.28 -9.56,-9.56 v -22.17 c 0,-5.28 4.29,-9.55 9.56,-9.55 5.27,0 9.56,4.27 9.56,9.55 v 22.17 c 0,5.28 -4.29,9.56 -9.56,9.56" /><path
         id="path26"
         style="fill:#91a8f6;fill-opacity:1;fill-rule:nonzero;stroke:none"
         d="m 2365,3331.84 h -22.18 c -5.27,0 -9.55,-4.28 -9.55,-9.56 0,-5.28 4.28,-9.56 9.55,-9.56 H 2365 c 5.27,0 9.55,4.28 9.55,9.56 0,5.28 -4.28,9.56 -9.55,9.56" /><path
         id="path28"
         style="fill:#91a8f6;fill-opacity:1;fill-rule:nonzero;stroke:none"
         d="m 2390.01,3377.76 c -5.27,0 -9.56,-4.27 -9.56,-9.55 v -22.16 c 0,-5.28 4.29,-9.56 9.56,-9.56 5.27,0 9.56,4.28 9.56,9.56 v 22.16 c 0,5.28 -4.29,9.55 -9.56,9.55" /><path
         id="path30"
         style="fill:#91a8f6;fill-opacity:1;fill-rule:nonzero;stroke:none"
         d="m 2437.2,3333.36 h -22.18 c -5.27,0 -9.55,-4.28 -9.55,-9.56 0,-5.28 4.28,-9.56 9.55,-9.56 h 22.18 c 5.28,0 9.56,4.28 9.56,9.56 0,5.28 -4.28,9.56 -9.56,9.56" /><path
         id="path32"
         style="fill:#91a8f6;fill-opacity:1;fill-rule:nonzero;stroke:none"
         d="m 4794.02,3929.24 c -5.28,0 -9.56,-4.28 -9.56,-9.56 v -22.17 c 0,-5.27 4.28,-9.55 9.56,-9.55 5.28,0 9.55,4.28 9.55,9.55 v 22.17 c 0,5.28 -4.27,9.56 -9.55,9.56" /><path
         id="path34"
         style="fill:#91a8f6;fill-opacity:1;fill-rule:nonzero;stroke:none"
         d="m 4769,3951.48 h -22.16 c -5.28,0 -9.56,-4.28 -9.56,-9.56 0,-5.27 4.28,-9.55 9.56,-9.55 H 4769 c 5.29,0 9.56,4.28 9.56,9.55 0,5.28 -4.27,9.56 -9.56,9.56" /><path
         id="path36"
         style="fill:#91a8f6;fill-opacity:1;fill-rule:nonzero;stroke:none"
         d="m 4794.02,3997.41 c -5.28,0 -9.56,-4.28 -9.56,-9.56 v -22.16 c 0,-5.27 4.28,-9.55 9.56,-9.55 5.28,0 9.55,4.28 9.55,9.55 v 22.16 c 0,5.28 -4.27,9.56 -9.55,9.56" /><path
         id="path38"
         style="fill:#91a8f6;fill-opacity:1;fill-rule:nonzero;stroke:none"
         d="m 4841.21,3953 h -22.18 c -5.27,0 -9.56,-4.28 -9.56,-9.55 0,-5.29 4.29,-9.56 9.56,-9.56 h 22.18 c 5.27,0 9.55,4.27 9.55,9.56 0,5.27 -4.28,9.55 -9.55,9.55" /><path
         id="path40"
         style="fill:#91a8f6;fill-opacity:1;fill-rule:nonzero;stroke:none"
         d="m 3902.96,4403.96 h -218.47 c -5.27,0 -9.55,-4.27 -9.55,-9.56 0,-5.27 4.28,-9.55 9.55,-9.55 h 218.47 c 5.28,0 9.56,4.28 9.56,9.55 0,5.29 -4.28,9.56 -9.56,9.56" /><path
         id="path42"
         style="fill:#91a8f6;fill-opacity:1;fill-rule:nonzero;stroke:none"
         d="m 3614.96,4404 h -42.68 c -5.29,0 -9.57,-4.28 -9.57,-9.56 0,-5.28 4.28,-9.55 9.57,-9.55 h 42.68 c 5.28,0 9.56,4.27 9.56,9.55 0,5.28 -4.28,9.56 -9.56,9.56" /><path
         id="path44"
         style="fill:#91a8f6;fill-opacity:1;fill-rule:nonzero;stroke:none"
         d="m 3629.63,4327.84 c 0,-5.28 -4.28,-9.55 -9.55,-9.55 h -47.79 c -5.28,0 -9.56,4.27 -9.56,9.55 0,5.28 4.28,9.56 9.56,9.56 h 47.79 c 5.27,0 9.55,-4.28 9.55,-9.56 z m 95.58,0 c 0,-5.28 -4.28,-9.55 -9.56,-9.55 h -47.79 c -5.27,0 -9.56,4.27 -9.56,9.55 0,5.28 4.29,9.56 9.56,9.56 h 47.79 c 5.28,0 9.56,-4.28 9.56,-9.56 z m 75.11,0 c 0,-5.28 -4.28,-9.55 -9.56,-9.55 h -27.32 c -5.29,0 -9.56,4.27 -9.56,9.55 0,5.28 4.27,9.56 9.56,9.56 h 27.32 c 5.28,0 9.56,-4.28 9.56,-9.56" /><path
         id="path46"
         style="fill:#91a8f6;fill-opacity:1;fill-rule:nonzero;stroke:none"
         d="m 6251.28,3402.66 c 0,-18.65 15.11,-33.75 33.75,-33.75 18.63,0 33.75,15.1 33.75,33.75 0,18.63 -15.12,33.75 -33.75,33.75 -18.64,0 -33.75,-15.12 -33.75,-33.75" /><path
         id="path48"
         style="fill:#91a8f6;fill-opacity:1;fill-rule:nonzero;stroke:none"
         d="m 1827.02,1749.07 h 218.47 c 5.28,0 9.56,4.28 9.56,9.55 0,5.29 -4.28,9.56 -9.56,9.56 h -218.47 c -5.28,0 -9.56,-4.27 -9.56,-9.56 0,-5.27 4.28,-9.55 9.56,-9.55" /><path
         id="path50"
         style="fill:#91a8f6;fill-opacity:1;fill-rule:nonzero;stroke:none"
         d="m 1714.79,1749.03 h 42.7 c 5.27,0 9.55,4.28 9.55,9.55 0,5.29 -4.28,9.56 -9.55,9.56 h -42.7 c -5.27,0 -9.55,-4.27 -9.55,-9.56 0,-5.27 4.28,-9.55 9.55,-9.55" /><path
         id="path52"
         style="fill:#91a8f6;fill-opacity:1;fill-rule:nonzero;stroke:none"
         d="m 5955.08,1593.64 c 0,0 13.05,-93.09 -95.7,-90.94 0,0 93.41,-0.96 90.96,-88.31 0,0 8.4,68.71 94.11,84.07 0,0 -72.43,-16.62 -89.37,95.18" /><path
         id="path54"
         style="fill:#91a8f6;fill-opacity:1;fill-rule:nonzero;stroke:none"
         d="m 6474.27,2906.77 c 0,0 13.04,-93.1 -95.71,-90.95 0,0 93.42,-0.95 90.96,-88.31 0,0 8.41,68.72 94.12,84.07 0,0 -72.43,-16.61 -89.37,95.19" /><path
         id="path56"
         style="fill:#91a8f6;fill-opacity:1;fill-rule:nonzero;stroke:none"
         d="m 3025.21,4167.2 c 0,0 13.06,-93.09 -95.69,-90.94 0,0 93.41,-0.96 90.96,-88.32 0,0 8.4,68.72 94.12,84.08 0,0 -72.44,-16.62 -89.39,95.18" /><path
         id="path58"
         style="fill:#91a8f6;fill-opacity:1;fill-rule:nonzero;stroke:none"
         d="m 2089.09,3910.09 c 0,0 13.05,-93.09 -95.69,-90.94 0,0 93.41,-0.96 90.96,-88.31 0,0 8.39,68.72 94.11,84.07 0,0 -72.43,-16.62 -89.38,95.18" /><path
         id="path60"
         style="fill:#91a8f6;fill-opacity:1;fill-rule:nonzero;stroke:none"
         d="m 2656.49,4308 c 0,0 4.55,-32.44 -33.35,-31.7 0,0 32.56,-0.33 31.69,-30.78 0,0 2.93,23.95 32.81,29.31 0,0 -25.25,-5.79 -31.15,33.17" /><path
         id="path62"
         style="fill:#91a8f6;fill-opacity:1;fill-rule:nonzero;stroke:none"
         d="m 4359.4,3189.3 c 0,0 4.55,-32.44 -33.35,-31.7 0,0 32.56,-0.33 31.69,-30.79 0,0 2.93,23.96 32.81,29.32 0,0 -25.25,-5.79 -31.15,33.17" /><path
         id="path64"
         style="fill:#91a8f6;fill-opacity:1;fill-rule:nonzero;stroke:none"
         d="m 1204.17,2634.67 c 0,0 4.54,-32.44 -33.35,-31.7 0,0 32.56,-0.33 31.69,-30.79 0,0 2.93,23.96 32.8,29.31 0,0 -25.24,-5.78 -31.14,33.18" /><path
         id="path66"
         style="fill:#91a8f6;fill-opacity:1;fill-rule:nonzero;stroke:none"
         d="m 4035.63,1759.86 c 0,0 4.54,-32.44 -33.35,-31.7 0,0 32.55,-0.33 31.68,-30.79 0,0 2.93,23.97 32.81,29.32 0,0 -25.25,-5.79 -31.14,33.17" /><path
         id="path68"
         style="fill:#91a8f6;fill-opacity:1;fill-rule:nonzero;stroke:none"
         d="m 2535.06,2366.72 c -19.11,0 -34.66,-15.55 -34.66,-34.65 0,-19.11 15.55,-34.65 34.66,-34.65 h 212.13 c 19.11,0 34.66,15.54 34.66,34.65 0,19.1 -15.55,34.65 -34.66,34.65 h -24.48 l -0.98,6.14 c -3.68,23.18 -25.68,39.39 -50.21,33.53 l -5.36,-1.29 -2.69,4.81 c -10.89,19.53 -31.52,31.66 -53.82,31.66 -33.98,0 -61.61,-27.64 -61.61,-61.61 0,-1.81 0.12,-3.57 0.27,-5.33 l 0.67,-7.91 z m 212.13,-83.86 h -212.13 c -27.14,0 -49.22,22.07 -49.22,49.21 0,26.6 21.23,48.36 47.65,49.19 0.69,41.41 34.6,74.87 76.16,74.87 25.8,0 49.78,-13.12 63.79,-34.58 28.59,4.09 54.11,-13.89 61.35,-40.26 h 12.4 c 27.14,0 49.22,-22.09 49.22,-49.22 0,-27.14 -22.08,-49.21 -49.22,-49.21" /><path
         id="path70"
         style="fill:#91a8f6;fill-opacity:1;fill-rule:nonzero;stroke:none"
         d="m 6319.45,4161.98 c -19.11,0 -34.65,-15.55 -34.65,-34.66 0,-19.1 15.54,-34.64 34.65,-34.64 h 212.13 c 19.11,0 34.66,15.54 34.66,34.64 0,19.11 -15.55,34.66 -34.66,34.66 h -24.48 l -0.98,6.14 c -3.68,23.17 -25.69,39.36 -50.2,33.52 l -5.36,-1.28 -2.69,4.81 c -10.9,19.53 -31.52,31.66 -53.83,31.66 -33.97,0 -61.61,-27.64 -61.61,-61.62 0,-1.8 0.13,-3.57 0.28,-5.33 l 0.68,-7.9 z m 212.13,-83.87 h -212.13 c -27.14,0 -49.22,22.08 -49.22,49.21 0,26.62 21.24,48.36 47.65,49.2 0.7,41.4 34.6,74.87 76.16,74.87 25.8,0 49.79,-13.12 63.79,-34.58 28.58,4.08 54.11,-13.9 61.35,-40.27 h 12.4 c 27.14,0 49.22,-22.08 49.22,-49.22 0,-27.13 -22.08,-49.21 -49.22,-49.21" /><path
         id="path72"
         style="fill:#91a8f6;fill-opacity:1;fill-rule:nonzero;stroke:none"
         d="m 3034.79,3620.36 c -19.11,0 -34.65,-15.55 -34.65,-34.65 0,-19.11 15.54,-34.65 34.65,-34.65 h 212.13 c 19.12,0 34.65,15.54 34.65,34.65 0,19.1 -15.53,34.65 -34.65,34.65 h -24.48 l -0.98,6.14 c -3.68,23.17 -25.69,39.36 -50.2,33.52 l -5.36,-1.28 -2.69,4.81 c -10.9,19.54 -31.52,31.66 -53.83,31.66 -33.97,0 -61.61,-27.64 -61.61,-61.61 0,-1.8 0.12,-3.58 0.28,-5.33 l 0.67,-7.91 z m 212.13,-83.86 h -212.13 c -27.13,0 -49.21,22.07 -49.21,49.21 0,26.61 21.23,48.36 47.64,49.19 0.7,41.4 34.6,74.88 76.16,74.88 25.81,0 49.79,-13.12 63.79,-34.58 28.58,4.07 54.12,-13.91 61.35,-40.28 h 12.4 c 27.14,0 49.22,-22.08 49.22,-49.21 0,-27.14 -22.08,-49.21 -49.22,-49.21" /><path
         id="path74"
         style="fill:#93c7ea;fill-opacity:1;fill-rule:nonzero;stroke:none"
         d="m 3911.31,817.09 v 0 c -91.11,-25.781 -185.87,27.18 -211.65,118.289 l -136.03,480.761 c -25.78,91.11 27.18,185.86 118.29,211.64 v 0 c 91.11,25.78 185.86,-27.17 211.64,-118.29 l 136.04,-480.76 c 25.77,-91.101 -27.19,-185.859 -118.29,-211.64" /><path
         id="path76"
         style="fill:#93c7ea;fill-opacity:1;fill-rule:nonzero;stroke:none"
         d="m 3717.16,821.141 v 0 c -67.6,66.3 -68.65,174.859 -2.36,242.449 l 349.86,356.71 c 66.3,67.6 174.84,68.66 242.45,2.36 v 0 c 67.6,-66.3 68.65,-174.86 2.35,-242.45 L 3959.61,823.5 c -66.3,-67.602 -174.84,-68.66 -242.45,-2.359" /><path
         id="path78"
         style="fill:#ff8383;fill-opacity:1;fill-rule:nonzero;stroke:none"
         d="m 4413.36,1506.19 c 45.99,-69.05 27.28,-162.3 -41.77,-208.29 -69.05,-45.99 -162.3,-27.28 -208.29,41.76 -45.99,69.05 -27.29,162.31 41.76,208.3 69.05,45.99 162.31,27.28 208.3,-41.77" /><path
         id="path80"
         style="fill:#ff8383;fill-opacity:1;fill-rule:nonzero;stroke:none"
         d="m 4187.71,1444.6 v 0 c -20.93,-5.39 -42.28,7.21 -47.67,28.14 l -13.32,51.7 c -5.39,20.94 7.21,42.28 28.14,47.67 v 0 c 20.94,5.4 42.29,-7.21 47.68,-28.14 l 13.31,-51.69 c 5.4,-20.94 -7.21,-42.28 -28.14,-47.68" /><path
         id="path82"
         style="fill:#ff8383;fill-opacity:1;fill-rule:nonzero;stroke:none"
         d="m 4338.39,1622.58 -53.22,-134.75 c -8.26,-20.88 -31.86,-31.11 -52.73,-22.87 v 0 c -20.88,8.25 -31.11,31.86 -22.87,52.73 l 53.23,134.75 c 8.24,20.87 31.85,31.11 52.73,22.86 v 0 c 20.87,-8.24 31.1,-31.85 22.86,-52.72" /><path
         id="path84"
         style="fill:#ff8383;fill-opacity:1;fill-rule:nonzero;stroke:none"
         d="m 4432.2,1594.34 -64.28,-129.84 c -9.96,-20.11 -34.34,-28.35 -54.45,-18.4 v 0 c -20.12,9.96 -28.35,34.34 -18.39,54.46 l 64.28,129.84 c 9.96,20.11 34.33,28.34 54.44,18.39 v 0 c 20.12,-9.96 28.35,-34.34 18.4,-54.45" /><path
         id="path86"
         style="fill:#ff8383;fill-opacity:1;fill-rule:nonzero;stroke:none"
         d="m 4501.97,1522.04 -89.76,-113.72 c -13.91,-17.62 -39.46,-20.62 -57.07,-6.72 v 0 c -17.62,13.91 -20.63,39.46 -6.72,57.07 l 89.76,113.72 c 13.91,17.62 39.47,20.63 57.07,6.72 v 0 c 17.62,-13.9 20.63,-39.45 6.72,-57.07" /><path
         id="path88"
         style="fill:#ff8383;fill-opacity:1;fill-rule:nonzero;stroke:none"
         d="m 3540.17,1796.34 -58.29,2.29 c -39.17,1.55 -69.67,34.54 -68.14,73.71 l 12.19,309.77 200.13,-7.87 -12.18,-309.77 c -1.55,-39.17 -34.54,-69.67 -73.71,-68.13" /><path
         id="path90"
         style="fill:#d15e79;fill-opacity:1;fill-rule:nonzero;stroke:none"
         d="m 3626.06,2185.13 -200.13,7.87 -3.1,-78.61 c -3.03,-77.03 59.68,-144.63 136.56,-139.04 4.79,0.34 9.58,0.94 14.38,1.8 16.05,2.87 31.02,8.56 44.76,16.37 l 7.53,191.61" /><path
         id="path92"
         style="fill:#1b2a67;fill-opacity:1;fill-rule:nonzero;stroke:none"
         d="m 3726.55,2491.71 c 51.7,-93.99 -8.14,-214.66 -133.65,-269.5 -125.52,-54.85 -269.17,-23.11 -320.87,70.89 -51.7,93.99 8.15,214.65 133.65,269.5 125.52,54.85 269.17,23.11 320.87,-70.89" /><path
         id="path94"
         style="fill:#1b2a67;fill-opacity:1;fill-rule:nonzero;stroke:none"
         d="m 3865.29,2463.35 c 34.31,-73.78 -32.35,-161.12 -148.87,-195.09 -116.54,-33.96 -238.8,-1.69 -273.11,72.1 -34.3,73.78 32.36,161.12 148.89,195.08 116.53,33.97 238.8,1.69 273.09,-72.09" /><path
         id="path96"
         style="fill:#1b2a67;fill-opacity:1;fill-rule:nonzero;stroke:none"
         d="m 3674.19,2647.53 c 69.03,-43.06 60.9,-152.64 -18.15,-244.74 -79.07,-92.09 -199.12,-131.83 -268.15,-88.77 -69.02,43.07 -60.9,152.64 18.16,244.74 79.06,92.1 199.11,131.85 268.14,88.77" /><path
         id="path98"
         style="fill:#ff8383;fill-opacity:1;fill-rule:nonzero;stroke:none"
         d="m 3742,2234.76 c 19.7,-110.39 -38.07,-213.07 -129.04,-229.3 v 0 c -90.95,-16.23 -180.66,60.12 -200.36,170.52 l -15.5,86.88 c -19.71,110.39 38.06,213.07 129,229.3 v 0 c 90.97,16.23 180.7,-60.12 200.39,-170.52 l 15.51,-86.88" /><path
         id="path100"
         style="fill:#1b2a67;fill-opacity:1;fill-rule:nonzero;stroke:none"
         d="m 3547.71,2505.27 c -50.31,45.54 -137.87,23.51 -195.57,-49.2 -57.7,-72.7 -63.69,-168.54 -13.38,-214.08 50.3,-45.53 137.86,-23.51 195.56,49.19 57.7,72.7 63.7,168.56 13.39,214.09" /><path
         id="path102"
         style="fill:#86294e;fill-opacity:1;fill-rule:nonzero;stroke:none"
         d="m 3580.89,2259.29 c -2.9,0 -5.76,1.37 -7.54,3.92 -2.84,4.16 -1.84,9.83 2.3,12.69 1.22,0.81 30.23,20.51 60.99,2.6 4.36,-2.55 5.84,-8.17 3.29,-12.52 -2.52,-4.37 -8.08,-5.85 -12.5,-3.29 -20.6,12.01 -40.53,-1.26 -41.39,-1.82 -1.57,-1.07 -3.36,-1.58 -5.15,-1.58" /><path
         id="path104"
         style="fill:#86294e;fill-opacity:1;fill-rule:nonzero;stroke:none"
         d="m 3738.7,2259.26 c -1.79,0 -3.58,0.52 -5.16,1.61 v 0 c -0.86,0.56 -20.78,13.83 -41.39,1.82 -4.38,-2.56 -9.94,-1.08 -12.5,3.29 -2.55,4.35 -1.07,9.97 3.29,12.52 30.81,18.01 59.77,-1.76 60.99,-2.6 4.15,-2.88 5.16,-8.58 2.28,-12.74 -1.77,-2.54 -4.62,-3.9 -7.51,-3.9" /><path
         id="path106"
         style="fill:#86294e;fill-opacity:1;fill-rule:nonzero;stroke:none"
         d="m 3622.16,2234.68 c -0.21,-5.27 -4.64,-9.37 -9.91,-9.16 -5.27,0.2 -9.37,4.64 -9.15,9.91 0.2,5.26 4.63,9.37 9.9,9.15 5.26,-0.2 9.36,-4.64 9.16,-9.9" /><path
         id="path108"
         style="fill:#86294e;fill-opacity:1;fill-rule:nonzero;stroke:none"
         d="m 3713.68,2231.07 c -0.21,-5.26 -4.65,-9.36 -9.91,-9.16 -5.26,0.22 -9.37,4.65 -9.16,9.92 0.2,5.26 4.65,9.36 9.91,9.16 5.27,-0.21 9.37,-4.65 9.16,-9.92" /><path
         id="path110"
         style="fill:#ffd2d4;fill-opacity:1;fill-rule:nonzero;stroke:none"
         d="m 3735.76,2302.12 c -15.72,0 -30.63,-5.84 -42.24,-16.58 -12.23,-11.3 -19.34,-26.68 -19.99,-43.34 -0.67,-16.64 5.2,-32.56 16.52,-44.78 11.3,-12.24 26.7,-19.33 43.33,-20 16.79,-0.28 32.56,5.21 44.8,16.53 12.23,11.3 19.34,26.69 19.99,43.35 0.66,16.66 -5.22,32.55 -16.52,44.8 -11.32,12.22 -26.71,19.31 -43.35,19.97 -0.85,0.03 -1.69,0.05 -2.54,0.05 z m 0.17,-137.43 c -1.01,0 -2.02,0.03 -3.05,0.08 -20.01,0.76 -38.54,9.3 -52.16,24.03 -13.59,14.72 -20.66,33.88 -19.87,53.91 0.79,20.02 9.34,38.54 24.04,52.14 14.74,13.6 33.73,20.79 53.91,19.88 20.03,-0.76 38.55,-9.32 52.17,-24.04 13.6,-14.71 20.67,-33.85 19.88,-53.9 -0.79,-20.03 -9.34,-38.56 -24.06,-52.15 -13.98,-12.94 -31.94,-19.95 -50.86,-19.95" /><path
         id="path112"
         style="fill:#ffd2d4;fill-opacity:1;fill-rule:nonzero;stroke:none"
         d="m 3574.51,2316.1 c -17.65,0 -34.41,-6.53 -47.45,-18.59 -13.74,-12.71 -21.71,-29.98 -22.44,-48.68 v 0 c -1.51,-38.58 28.64,-71.18 67.23,-72.72 18.49,-0.89 36.53,5.85 50.27,18.56 13.74,12.7 21.71,29.97 22.45,48.67 0.74,18.7 -5.85,36.56 -18.54,50.28 -12.7,13.73 -29.99,21.72 -48.69,22.43 -0.93,0.05 -1.88,0.05 -2.83,0.05 z m 0.19,-154.29 c -1.15,0 -2.28,0.02 -3.41,0.08 -46.44,1.83 -82.73,41.09 -80.9,87.5 0.88,22.5 10.47,43.3 27,58.58 16.53,15.3 38.03,23.39 60.52,22.32 22.49,-0.87 43.29,-10.47 58.57,-26.99 15.29,-16.53 23.21,-38.02 22.33,-60.52 -0.9,-22.5 -10.49,-43.3 -27.02,-58.57 -15.69,-14.52 -35.86,-22.4 -57.09,-22.4" /><path
         id="path114"
         style="fill:#ffd2d4;fill-opacity:1;fill-rule:nonzero;stroke:none"
         d="m 3644.34,2232.93 30.99,-1.22 c 3.61,-0.15 6.64,2.67 6.79,6.27 v 0 c 0.14,3.6 -2.67,6.64 -6.27,6.79 l -31.01,1.21 c -3.6,0.14 -6.64,-2.66 -6.77,-6.27 v 0 c -0.15,-3.61 2.66,-6.64 6.27,-6.78" /><path
         id="path116"
         style="fill:#86294e;fill-opacity:1;fill-rule:nonzero;stroke:none"
         d="m 3706.41,2188.98 c -0.88,-10.88 -13.53,-20.82 -28.25,-22.16 -14.71,-1.36 -25.92,6.37 -25.03,17.26 0.87,10.9 13.52,20.82 28.24,22.18 14.71,1.35 25.92,-6.39 25.04,-17.28" /><path
         id="path118"
         style="fill:#86294e;fill-opacity:1;fill-rule:nonzero;stroke:none"
         d="m 3700.17,2130.4 c -0.99,-25.27 -24,-44.89 -51.37,-43.81 -27.38,1.08 -43.18,28.2 -42.19,53.47 32.13,2.87 63.36,-0.1 93.56,-9.66" /><path
         id="path120"
         style="fill:#ffd2d4;fill-opacity:1;fill-rule:nonzero;stroke:none"
         d="m 3652.75,2114.58 c -21.64,2.51 -34.99,9.93 -36.26,26.19 27,1.44 53.35,-1.3 78.97,-8.77 -3.69,-14.66 -21.5,-19.87 -42.71,-17.42" /><path
         id="path122"
         style="fill:#201028;fill-opacity:1;fill-rule:nonzero;stroke:none"
         d="m 3588.78,2076.49 v 0 l -53.81,0.05 c -21.71,0 -42.54,8.01 -58.66,22.58 l -33.68,30.38 c -2.68,2.43 -2.89,6.56 -0.47,9.21 2.41,2.71 6.54,2.89 9.22,0.49 l 33.68,-30.38 c 13.71,-12.4 31.44,-19.22 49.91,-19.22 l 53.81,-0.05 c 3.6,0 6.52,-2.93 6.52,-6.53 0,-3.63 -2.92,-6.53 -6.52,-6.53" /><path
         id="path124"
         style="fill:#ffd2d4;fill-opacity:1;fill-rule:nonzero;stroke:none"
         d="m 3588.78,2069.96 h -0.02 l -21.81,0.02 c -7.22,0 -13.06,5.87 -13.05,13.1 0.02,7.18 5.86,13.03 13.06,13.03 h 0.01 l 21.82,-0.03 c 7.22,0 13.07,-5.86 13.05,-13.08 -0.01,-7.2 -5.85,-13.04 -13.06,-13.04" /><path
         id="path126"
         style="fill:#445eea;fill-opacity:1;fill-rule:nonzero;stroke:none"
         d="m 3522.84,2192.92 c -2.37,-60.37 -53.24,-107.39 -113.61,-105.02 -60.37,2.38 -107.39,53.24 -105.02,113.61 2.37,60.38 53.24,107.4 113.61,105.02 60.37,-2.37 107.39,-53.24 105.02,-113.61" /><path
         id="path128"
         style="fill:#91a8f6;fill-opacity:1;fill-rule:nonzero;stroke:none"
         d="m 3482.84,2194.49 c -2.02,-51.53 -41.86,-91.81 -88.98,-89.96 -47.12,1.86 -83.67,45.14 -81.65,96.67 2.03,51.54 41.87,91.82 88.99,89.96 47.12,-1.85 83.67,-45.13 81.64,-96.67" /><path
         id="path130"
         style="fill:#e0eef7;fill-opacity:1;fill-rule:nonzero;stroke:none"
         d="m 3410.86,2197.32 c -0.82,-20.87 -14.62,-37.29 -30.81,-36.65 -16.2,0.64 -28.66,18.08 -27.84,38.96 0.82,20.88 14.61,37.28 30.81,36.65 16.2,-0.64 28.66,-18.08 27.84,-38.96" /><path
         id="path132"
         style="fill:#93c7ea;fill-opacity:1;fill-rule:nonzero;stroke:none"
         d="m 3677.83,669.941 -523.3,-14.742 c -87.24,3.43 -155.17,76.93 -151.75,164.18 l 33.06,875.731 c 1.8,45.77 32.07,85.53 75.72,99.42 l 390.13,124.22 311.85,-149.46 c 39.16,-18.77 63.41,-59.03 61.7,-102.42 L 3842,821.691 c -3.43,-87.25 -76.93,-155.191 -164.17,-151.75" /><path
         id="path134"
         style="fill:#6eacce;fill-opacity:1;fill-rule:nonzero;stroke:none"
         d="m 3875.24,1666.88 c 1.8,-91.32 0.75,-182.53 -0.75,-273.72 -1.2,-91.19 -4.45,-182.31 -7.7,-273.42 -3.88,-91.1 -7.81,-182.189 -13.75,-273.201 -1.35,-22.117 -2.46,-47.039 -10.81,-69.68 -7.9,-22.629 -20.56,-43.55 -37.32,-60.379 -33.59,-33.429 -81.41,-51.519 -127.08,-46.539 45.71,0.989 89.48,21.469 117.67,55.219 14.47,16.43 25.04,36.02 31.02,56.762 6.4,20.797 6.22,42.117 6.44,65.41 1.21,91.207 4.45,182.318 7.74,273.438 3.91,91.08 7.83,182.17 13.8,273.19 5.68,91.01 11.78,182.02 20.74,272.92" /><path
         id="path136"
         style="fill:#93c7ea;fill-opacity:1;fill-rule:nonzero;stroke:none"
         d="m 3644.9,1753.09 -282.43,18.21 10.83,167.88 c 1.35,20.87 19.36,36.69 40.23,35.34 l 206.85,-13.34 c 20.87,-1.35 36.7,-19.35 35.35,-40.22 l -10.83,-167.87" /><path
         id="path138"
         style="fill:#93c7ea;fill-opacity:1;fill-rule:nonzero;stroke:none"
         d="m 2803.51,926.629 v 0 c -87.46,36.32 -128.9,136.651 -92.58,224.091 l 191.63,461.43 c 36.32,87.44 136.65,128.9 224.09,92.58 v 0 c 87.44,-36.32 128.9,-136.65 92.58,-224.09 l -191.64,-461.43 c -36.31,-87.44 -136.64,-128.89 -224.08,-92.581" /><path
         id="path140"
         style="fill:#6eacce;fill-opacity:1;fill-rule:nonzero;stroke:none"
         d="m 3126.65,1704.73 c 30.62,-9.92 58.53,-29.59 79.2,-55.64 20.26,-26.28 33.21,-58.82 36.04,-92.6 4.53,-33.56 -6.26,-69.34 -18.6,-98.22 l -36.19,-89.03 c -24.85,-59.06 -49.75,-118.11 -76.5,-176.36 l -40.23,-87.37 c -14.3,-28.75 -27.75,-57.84 -42.78,-86.29 9.56,30.71 20.67,60.79 30.95,91.2 l 33.5,90.17 c 22.38,60.07 46.64,119.38 70.95,178.66 l 37.53,88.48 c 6.4,15.12 13.03,28.48 16.22,43.06 3.54,14.49 5.63,29.49 5.18,44.57 -0.81,60.56 -37.86,120.09 -95.27,149.37" /><path
         id="path142"
         style="fill:#86294e;fill-opacity:1;fill-rule:nonzero;stroke:none"
         d="m 3521.82,1293.04 c -11.17,0.72 -20.82,-7.79 -21.55,-18.94 l -2.54,-39.35 c -0.71,-11.16 7.78,-20.83 18.94,-21.56 l 48.19,-3.1 5.16,79.84 z m 79.63,-124.58 -87.3,5.63 c -32.73,2.11 -57.63,30.46 -55.52,63.18 l 2.54,39.35 c 2.11,32.73 30.44,57.64 63.18,55.53 l 87.29,-5.64 -10.19,-158.05" /><path
         id="path144"
         style="fill:#d15e79;fill-opacity:1;fill-rule:nonzero;stroke:none"
         d="m 3686.35,1042.9 -75.51,4.87 c -45.85,2.96 -80.63,42.53 -77.67,88.38 l 15.66,242.74 c 1.75,27.08 243.3,11.5 241.55,-15.58 l -15.65,-242.74 c -2.96,-45.85 -42.53,-80.63 -88.38,-77.67" /><path
         id="path146"
         style="fill:#86294e;fill-opacity:1;fill-rule:nonzero;stroke:none"
         d="m 3766.32,1356.74 c -0.63,-9.76 -45.48,-14.8 -100.17,-11.27 -54.69,3.52 -98.51,14.29 -97.89,24.04 0.64,9.75 45.48,14.8 100.17,11.27 54.7,-3.53 98.51,-14.3 97.89,-24.04" /><path
         id="path148"
         style="fill:#93c7ea;fill-opacity:1;fill-rule:nonzero;stroke:none"
         d="m 2708.5,1080.78 v 0 c 1.49,94.68 79.45,170.22 174.13,168.72 l 499.58,-7.88 c 94.67,-1.49 170.2,-79.46 168.71,-174.13 v 0 c -1.5,-94.681 -79.46,-170.209 -174.13,-168.72 l -499.57,7.89 c -94.68,1.488 -170.22,79.449 -168.72,174.12" /><path
         id="path150"
         style="fill:#6eacce;fill-opacity:1;fill-rule:nonzero;stroke:none"
         d="m 2882.63,1249.5 c 64.15,4.38 128.25,5.9 192.35,6.97 64.1,1.37 128.17,0.7 192.25,0.02 l 96.07,-2.2 c 31.41,-0.22 68.55,-4.5 97.53,-22.03 29.87,-16.06 54.55,-40.91 70.62,-69.95 15.65,-29.35 22.58,-62.78 19.47,-94.83 -4.04,64.33 -43.9,121.99 -99.11,146.83 -13.67,6.39 -28.24,10.49 -42.93,12.99 -14.66,2.88 -29.54,2.11 -45.96,2.25 l -96.11,0.83 c -64.07,1.34 -128.12,2.7 -192.14,6.09 -64.04,3.1 -128.07,6.63 -192.04,13.03" /><path
         id="path152"
         style="fill:#ff8383;fill-opacity:1;fill-rule:nonzero;stroke:none"
         d="m 3723.34,1118.88 c 7.69,-82.6 -53.05,-155.798 -135.65,-163.489 -82.61,-7.68 -155.81,53.049 -163.49,135.659 -7.69,82.6 53.05,155.8 135.65,163.48 82.61,7.69 155.8,-53.05 163.49,-135.65" /><path
         id="path154"
         style="fill:#ff8383;fill-opacity:1;fill-rule:nonzero;stroke:none"
         d="m 3496.08,1176.95 v 0 c -18.75,6.49 -28.68,26.95 -22.19,45.7 l 16.01,46.29 c 6.5,18.75 26.95,28.68 45.7,22.19 v 0 c 18.75,-6.48 28.69,-26.94 22.19,-45.69 l -16.01,-46.29 c -6.49,-18.75 -26.95,-28.69 -45.7,-22.2" /><path
         id="path156"
         style="fill:#ff8383;fill-opacity:1;fill-rule:nonzero;stroke:none"
         d="m 3783.72,1157.3 -133.32,-12.41 c -20.64,-1.92 -38.94,13.26 -40.87,33.92 v 0 c -1.92,20.64 13.26,38.94 33.92,40.87 l 133.31,12.4 c 20.65,1.92 38.95,-13.26 40.88,-33.92 v 0 c 1.91,-20.64 -13.26,-38.94 -33.92,-40.86" /><path
         id="path158"
         style="fill:#ff8383;fill-opacity:1;fill-rule:nonzero;stroke:none"
         d="m 3755.48,1034.71 -133.61,8.62 c -20.7,1.33 -36.4,19.19 -35.06,39.89 v 0 c 1.33,20.7 19.2,36.4 39.89,35.06 l 133.61,-8.62 c 20.7,-1.33 36.4,-19.19 35.06,-39.89 v 0 c -1.34,-20.7 -19.2,-36.39 -39.89,-35.06" /><path
         id="path160"
         style="fill:#445eea;fill-opacity:1;fill-rule:nonzero;stroke:none"
         d="m 5114.17,1490.23 c -4.01,0 -8.02,1.54 -11.07,4.59 -6.13,6.11 -6.13,16.03 0,22.15 l 149.58,149.6 c 6.07,6.13 16.01,6.13 22.13,0 6.13,-6.09 6.13,-16.01 0,-22.14 l -149.58,-149.61 c -3.02,-3.05 -7.06,-4.59 -11.06,-4.59" /><path
         id="path162"
         style="fill:#445eea;fill-opacity:1;fill-rule:nonzero;stroke:none"
         d="m 5007.66,1582.03 c -8.66,0 -15.68,7.01 -15.68,15.67 v 211.54 c 0,8.65 7.02,15.66 15.68,15.66 8.64,0 15.66,-7.01 15.66,-15.66 V 1597.7 c 0,-8.66 -7.02,-15.67 -15.66,-15.67" /><path
         id="path164"
         style="fill:#445eea;fill-opacity:1;fill-rule:nonzero;stroke:none"
         d="m 5417.51,1383.72 h -211.57 c -8.65,0 -15.67,7.01 -15.67,15.67 0,8.65 7.02,15.66 15.67,15.66 h 211.57 c 8.65,0 15.66,-7.01 15.66,-15.66 0,-8.66 -7.01,-15.67 -15.66,-15.67" /><path
         id="path166"
         style="fill:#6eacce;fill-opacity:1;fill-rule:nonzero;stroke:none"
         d="m 3538.5,725.672 h 1294.39 c 36.1,0 47.23,29.258 47.23,65.379 v 0 H 3473.1 v 0 c 0,-36.121 29.28,-65.379 65.4,-65.379" /><path
         id="path168"
         style="fill:#6eacce;fill-opacity:1;fill-rule:nonzero;stroke:none"
         d="m 3463.42,791.051 h 458.82 c 0,-36.121 -33.24,-65.379 -74.25,-65.379 h -300.7 c -0.4,0 -85.41,0.008 -85.83,0.008 -42.29,0.609 -40.34,65.371 1.96,65.371" /><path
         id="path170"
         style="fill:#e0eef7;fill-opacity:1;fill-rule:nonzero;stroke:none"
         d="m 3950.87,772.031 h 929.25 c 27.58,0 51.32,19.649 56.43,46.739 l 125.25,537.44 c 6.74,35.4 -20.41,68.19 -56.45,68.19 h -929.22 c -27.63,0 -51.32,-19.64 -56.47,-46.75 L 3894.42,840.219 c -6.71,-35.399 20.42,-68.188 56.45,-68.188" /><path
         id="path172"
         style="fill:#6eacce;fill-opacity:1;fill-rule:nonzero;stroke:none"
         d="m 4019.66,1377.65 c 2.79,14.91 11.31,27.53 22.92,35.9 17.37,-12.54 27.32,-34.32 22.92,-57.34 L 3940.28,818.77 c -2.84,-14.911 -11.28,-27.489 -22.9,-35.872 -17.36,12.532 -27.32,34.352 -22.96,57.321 l 125.24,537.431" /><path
         id="path174"
         style="fill:#ffffff;fill-opacity:1;fill-rule:nonzero;stroke:none"
         d="M 4604.09,1029.66 H 4451.7 c -31.26,0 -56.6,25.34 -56.6,56.6 v 0 c 0,31.26 25.34,56.6 56.6,56.6 h 152.39 c 31.26,0 56.6,-25.34 56.6,-56.6 v 0 c 0,-31.26 -25.34,-56.6 -56.6,-56.6" /><path
         id="path176"
         style="fill:#6eacce;fill-opacity:1;fill-rule:nonzero;stroke:none"
         d="m 3601.95,773.039 h -45.72 c -9.01,0 -16.33,7.301 -16.33,16.332 v 0 c 0,9.008 7.32,16.32 16.33,16.32 h 45.72 c 9.02,0 16.33,-7.312 16.33,-16.32 v 0 c 0,-9.031 -7.31,-16.332 -16.33,-16.332" /><path
         id="path178"
         style="fill:#6eacce;fill-opacity:1;fill-rule:nonzero;stroke:none"
         d="m 3691.21,773.039 h -45.72 c -9.02,0 -16.33,7.301 -16.33,16.332 v 0 c 0,9.008 7.31,16.32 16.33,16.32 h 45.72 c 9.01,0 16.33,-7.312 16.33,-16.32 v 0 c 0,-9.031 -7.32,-16.332 -16.33,-16.332" /><path
         id="path180"
         style="fill:#6eacce;fill-opacity:1;fill-rule:nonzero;stroke:none"
         d="m 3780.47,773.039 h -45.71 c -9.03,0 -16.33,7.301 -16.33,16.332 v 0 c 0,9.008 7.3,16.32 16.33,16.32 h 45.71 c 9.02,0 16.33,-7.312 16.33,-16.32 v 0 c 0,-9.031 -7.31,-16.332 -16.33,-16.332" /><path
         id="path182"
         style="fill:#6eacce;fill-opacity:1;fill-rule:nonzero;stroke:none"
         d="m 3869.73,773.039 h -45.72 c -9.02,0 -16.32,7.301 -16.32,16.332 v 0 c 0,9.008 7.3,16.32 16.32,16.32 h 45.72 c 9.02,0 16.32,-7.312 16.32,-16.32 v 0 c 0,-9.031 -7.3,-16.332 -16.32,-16.332" /><path
         id="path184"
         style="fill:#1b2a67;fill-opacity:1;fill-rule:nonzero;stroke:none"
         d="M 5572.89,650.852 H 1662.88 c -21.65,0 -39.19,17.539 -39.19,39.179 v 0 c 0,21.641 17.54,39.188 39.19,39.188 h 3910.01 c 21.64,0 39.18,-17.547 39.18,-39.188 v 0 c 0,-21.64 -17.54,-39.179 -39.18,-39.179" /><path
         id="path186"
         style="fill:none;stroke:#1b2a67;stroke-width:8.26914978;stroke-linecap:round;stroke-linejoin:miter;stroke-miterlimit:10;stroke-dasharray:none;stroke-opacity:1"
         d="m 2248.15,970.16 c 0,0 -28.77,216.21 -80.87,269.36" /><path
         id="path188"
         style="fill:#ffd2d4;fill-opacity:1;fill-rule:nonzero;stroke:none"
         d="m 2175.69,1368.16 c 13.93,-46.07 11.09,-87.69 -6.34,-92.96 -17.44,-5.27 -42.86,27.82 -56.77,73.89 -0.14,0.47 -0.28,0.93 -0.41,1.39 -11.8,41.05 50.19,59.77 63.1,19.06 0.15,-0.46 0.29,-0.92 0.42,-1.38" /><path
         id="path190"
         style="fill:#ffd2d4;fill-opacity:1;fill-rule:nonzero;stroke:none"
         d="m 2258.38,1265.2 c -46.08,-13.93 -87.71,-11.09 -92.97,6.34 -5.26,17.43 27.82,42.85 73.9,56.77 0.46,0.15 0.91,0.27 1.38,0.41 41.05,11.8 59.78,-50.19 19.07,-63.1 -0.46,-0.14 -0.92,-0.29 -1.38,-0.42" /><path
         id="path192"
         style="fill:#ffd2d4;fill-opacity:1;fill-rule:nonzero;stroke:none"
         d="m 2100.74,1217.57 c 46.09,13.92 79.17,39.33 73.9,56.77 -5.26,17.43 -46.89,20.27 -92.96,6.34 -0.47,-0.13 -0.93,-0.27 -1.38,-0.42 -40.72,-12.91 -21.99,-74.9 19.07,-63.1 0.45,0.14 0.91,0.27 1.37,0.41" /><path
         id="path194"
         style="fill:#ffd2d4;fill-opacity:1;fill-rule:nonzero;stroke:none"
         d="m 2178.31,1165.2 c 12.95,46.35 9.24,87.91 -8.3,92.81 -17.54,4.89 -42.26,-28.71 -55.21,-75.07 -0.12,-0.47 -0.25,-0.93 -0.38,-1.4 -10.92,-41.29 51.44,-58.71 63.49,-17.73 0.14,0.46 0.27,0.92 0.4,1.39" /><path
         id="path196"
         style="fill:#ffd2d4;fill-opacity:1;fill-rule:nonzero;stroke:none"
         d="m 2222.79,1178.63 c -36.45,31.43 -56.37,68.09 -44.48,81.88 11.89,13.8 51.08,-0.51 87.54,-31.94 0.36,-0.32 0.72,-0.63 1.08,-0.95 31.97,-28.32 -10.32,-77.37 -43.04,-49.92 -0.36,0.31 -0.74,0.62 -1.1,0.93" /><path
         id="path198"
         style="fill:#d15e79;fill-opacity:1;fill-rule:nonzero;stroke:none"
         d="m 2191.06,1269.16 c 3.61,-11.91 -3.14,-24.49 -15.05,-28.1 -11.92,-3.59 -24.5,3.15 -28.09,15.06 -3.6,11.92 3.13,24.5 15.05,28.1 11.92,3.59 24.49,-3.15 28.09,-15.06" /><path
         id="path200"
         style="fill:#445eea;fill-opacity:1;fill-rule:nonzero;stroke:none"
         d="m 2163.18,1109.14 c 59.87,-47.17 93.94,-103.76 76.1,-126.402 -17.84,-22.636 -80.84,-2.769 -140.71,44.402 -59.86,47.16 -76.08,126.4 -76.08,126.4 0,0 80.83,2.77 140.69,-44.4" /><path
         id="path202"
         style="fill:#445eea;fill-opacity:1;fill-rule:nonzero;stroke:none"
         d="m 2373.44,1037.74 c -63.19,-59.33 -132.61,-88.06 -155.06,-64.17 -22.45,23.91 10.58,91.39 73.77,150.74 63.19,59.34 155.06,64.17 155.06,64.17 0,0 -10.58,-91.39 -73.77,-150.74" /><path
         id="path204"
         style="fill:#1b2a67;fill-opacity:1;fill-rule:nonzero;stroke:none"
         d="m 2326.98,716.148 h -206.76 l -36.19,260.122 h 279.13 l -36.18,-260.122" /><path
         id="path206"
         style="fill:#1b2a67;fill-opacity:1;fill-rule:nonzero;stroke:none"
         d="m 2373.98,909.57 h -300.76 c -8.11,0 -14.69,6.578 -14.69,14.692 v 67.328 c 0,8.121 6.58,14.69 14.69,14.69 h 300.76 c 8.12,0 14.69,-6.569 14.69,-14.69 v -67.328 c 0,-8.114 -6.57,-14.692 -14.69,-14.692" /><path
         id="path208"
         style="fill:#445eea;fill-opacity:1;fill-rule:nonzero;stroke:none"
         d="m 2854.4,2920.61 102.53,-109.96 781.52,325.97 z" /><path
         id="path210"
         style="fill:#91a8f6;fill-opacity:1;fill-rule:nonzero;stroke:none"
         d="m 2890.86,3283.45 -77.19,-116.45 52.19,-114.12 -117.08,-19.91 -103.46,-227.13 1118.21,338.37 -872.67,139.24" /><path
         id="path212"
         style="fill:#445eea;fill-opacity:1;fill-rule:nonzero;stroke:none"
         d="m 2865.86,3052.88 -52.19,114.12 605.68,-28.32 z" /><path
         id="path214"
         style="fill:#445eea;fill-opacity:1;fill-rule:nonzero;stroke:none"
         d="m 1822.36,2716.34 c -8.18,0 -15.07,6.37 -15.6,14.67 -1.64,25.61 -2.45,52.58 -2.45,80.11 v 6.35 c 0.05,13.62 0.3,27.27 0.74,40.95 0.27,8.47 7.22,15.15 15.66,15.15 0.15,0 0.33,0 0.51,0 8.65,-0.28 15.43,-7.52 15.16,-16.17 -0.44,-13.37 -0.7,-26.72 -0.75,-39.98 v -6.3 c 0,-26.89 0.83,-53.17 2.41,-78.12 0.55,-8.65 -6,-16.1 -14.65,-16.64 -0.33,-0.02 -0.67,-0.02 -1.03,-0.02 z m 50.01,-245.94 c -6.33,0 -12.29,3.88 -14.66,10.16 -15.32,40.63 -27.18,82.19 -35.24,123.52 -1.66,8.5 3.88,16.74 12.37,18.4 8.58,1.76 16.74,-3.88 18.4,-12.38 7.73,-39.62 19.1,-79.49 33.8,-118.47 3.07,-8.11 -1.04,-17.15 -9.13,-20.21 -1.84,-0.69 -3.7,-1.02 -5.54,-1.02 z m 124.14,-218.03 c -4.59,0 -9.16,2.02 -12.26,5.89 -26.64,33.48 -50.85,69.19 -71.96,106.21 -4.27,7.5 -1.65,17.09 5.87,21.38 7.53,4.21 17.1,1.63 21.39,-5.87 20.3,-35.59 43.59,-69.98 69.24,-102.18 5.38,-6.78 4.26,-16.63 -2.5,-22.04 -2.88,-2.29 -6.33,-3.39 -9.78,-3.39 z m 184.72,-169.73 c -2.99,0 -6,0.84 -8.68,2.62 -35.51,23.71 -69.44,50.34 -100.85,79.22 -6.38,5.84 -6.79,15.76 -0.92,22.14 5.87,6.38 15.82,6.77 22.15,0.92 30.2,-27.75 62.86,-53.4 97.02,-76.2 7.2,-4.8 9.13,-14.54 4.34,-21.74 -3.01,-4.51 -7.99,-6.96 -13.06,-6.96 z m 227,-106.93 c -1.5,0 -3.05,0.23 -4.59,0.72 -41.23,12.62 -81.43,28.06 -119.47,45.91 -7.83,3.69 -11.2,13.02 -7.53,20.85 3.67,7.88 13.09,11.2 20.85,7.53 36.71,-17.22 75.52,-32.13 115.34,-44.34 8.26,-2.53 12.93,-11.28 10.38,-19.57 -2.07,-6.73 -8.27,-11.1 -14.98,-11.1 z m 247.35,-45.23 c -0.46,0 -0.92,0 -1.38,0.05 -43.16,3.7 -85.65,9.24 -126.23,16.45 -8.53,1.51 -14.19,9.65 -12.69,18.2 1.54,8.49 9.7,13.92 18.2,12.67 39.65,-7.06 81.18,-12.47 123.42,-16.09 8.63,-0.74 15,-8.32 14.27,-16.96 -0.69,-8.17 -7.56,-14.32 -15.59,-14.32 z m 151.41,-6.17 c -8.59,0 -17.21,0.05 -25.81,0.14 -8.68,0.11 -15.59,7.2 -15.49,15.85 0.1,8.65 7.58,16.51 15.84,15.48 40.6,-0.46 80.88,0.19 125.09,2.04 0.24,0 0.46,0 0.67,0 8.36,0 15.31,-6.58 15.66,-15 0.36,-8.64 -6.35,-15.96 -15,-16.33 -35.41,-1.47 -68.45,-2.18 -100.96,-2.18" /><path
         id="path216"
         style="fill:#445eea;fill-opacity:1;fill-rule:nonzero;stroke:none"
         d="m 1196.04,3826.21 c -6.79,0 -13.01,4.44 -15.03,11.25 -2.45,8.32 2.29,17.02 10.59,19.46 39.51,11.66 80.98,19.14 123.22,22.28 l 4.72,0.15 c 7.74,-0.38 15.82,-6.71 15.98,-15.36 0.17,-8.65 -6.72,-15.82 -15.36,-15.97 l -3.42,-0.12 c -39.62,-2.94 -78.89,-10.01 -116.26,-21.03 -1.49,-0.43 -2.99,-0.66 -4.44,-0.66 z m 363.14,-39.96 c -2.93,0 -5.92,0.82 -8.57,2.56 -33.22,21.79 -70.19,37.78 -109.86,47.55 -8.39,2.09 -13.54,10.56 -11.48,18.98 2.07,8.37 10.59,13.5 18.98,11.49 43.12,-10.64 83.35,-28.07 119.55,-51.8 7.25,-4.74 9.26,-14.46 4.52,-21.71 -3.01,-4.59 -8.01,-7.07 -13.14,-7.07 z m -572.137,-93.19 c -3.32,0 -6.66,1.02 -9.492,3.19 -6.899,5.25 -8.215,15.07 -2.988,21.96 25.156,33.04 58.167,62.23 98.147,86.72 7.43,4.49 17.07,2.17 21.56,-5.18 4.51,-7.37 2.19,-17.04 -5.18,-21.56 -36.67,-22.45 -66.8,-49.03 -89.578,-78.96 -3.086,-4.05 -7.754,-6.17 -12.469,-6.17 z m 730.667,-98.25 c -5.83,0 -11.42,3.29 -14.13,8.91 -18.73,39.08 -40.36,73.98 -64.31,103.73 -5.41,6.73 -4.37,16.61 2.39,22.04 6.66,5.38 16.53,4.42 22.04,-2.4 25.44,-31.61 48.38,-68.57 68.15,-109.8 3.75,-7.81 0.45,-17.17 -7.35,-20.92 -2.2,-1.05 -4.51,-1.56 -6.79,-1.56 z M 948.137,3454.24 c -6.899,0 -13.196,4.56 -15.11,11.5 -1.933,7.04 -3.75,14.14 -5.461,21.31 -5.562,23.57 -8.367,46.94 -8.367,69.46 0,13.53 0.996,27.05 3.008,40.21 1.309,8.58 9.414,14.5 17.844,13.14 8.562,-1.27 14.429,-9.28 13.133,-17.83 -1.758,-11.61 -2.657,-23.55 -2.657,-35.52 0,-20.1 2.547,-41.05 7.559,-62.24 1.602,-6.79 3.309,-13.53 5.144,-20.16 2.329,-8.37 -2.578,-16.99 -10.917,-19.29 -1.407,-0.38 -2.801,-0.58 -4.176,-0.58 z M 1790.37,3354.1 c -7.5,0 -14.1,5.38 -15.43,13.01 -7.27,42.63 -16.58,83.37 -27.68,121.13 -2.45,8.3 2.29,17.02 10.61,19.45 8.34,2.54 17.02,-2.3 19.44,-10.62 11.46,-38.91 21.05,-80.85 28.55,-124.65 1.45,-8.55 -4.29,-16.64 -12.8,-18.12 -0.92,-0.15 -1.79,-0.2 -2.69,-0.2 z m -722.05,-118.43 c -4.24,0 -8.5,1.71 -11.58,5.1 -29.37,32.17 -54.73,67.54 -75.345,105.09 -4.149,7.6 -1.375,17.12 6.203,21.3 7.656,4.13 17.152,1.3 21.312,-6.2 19.38,-35.38 43.29,-68.7 70.99,-99.06 5.84,-6.38 5.38,-16.3 -1.01,-22.15 -3.02,-2.73 -6.79,-4.08 -10.57,-4.08 z m 742.24,-132.92 c -8.66,0 -15.67,7.02 -15.67,15.66 v 5.57 c 0,39.52 -1.58,79.67 -4.71,119.37 -0.67,8.62 5.79,16.18 14.41,16.86 8.31,0.77 16.14,-5.76 16.86,-14.41 3.16,-40.49 4.77,-81.49 4.77,-121.82 v -5.57 c 0,-8.64 -7.01,-15.66 -15.66,-15.66 z m -539.59,-14 c -2.3,0 -4.65,0.5 -6.84,1.58 -40.14,19.46 -77.35,41.4 -110.64,65.21 -7.05,5.05 -8.69,14.82 -3.66,21.86 5,7.04 14.8,8.72 21.87,3.65 31.88,-22.78 67.58,-43.83 106.1,-62.5 7.79,-3.78 11.05,-13.17 7.28,-20.95 -2.71,-5.59 -8.29,-8.85 -14.11,-8.85 z m 238.08,-80.52 c -1.15,0 -2.3,0.12 -3.44,0.38 -30.32,6.81 -59.86,14.47 -87.8,22.78 -11.88,3.55 -23.57,7.25 -35.08,11.05 -8.21,2.7 -12.67,11.58 -9.95,19.8 2.71,8.21 11.59,12.76 19.81,9.95 11.2,-3.7 22.58,-7.3 34.16,-10.74 27.26,-8.11 56.1,-15.59 85.69,-22.23 8.47,-1.91 13.78,-10.27 11.89,-18.72 -1.65,-7.3 -8.11,-12.27 -15.28,-12.27 z m 877.55,-16.08 c -7.83,0 -14.62,5.87 -15.54,13.86 -1.01,8.59 5.16,16.38 13.75,17.37 40.73,4.77 82.23,10.16 124.51,16.18 8.59,1.35 16.53,-4.75 17.73,-13.3 1.22,-8.57 -4.73,-16.5 -13.29,-17.72 -42.59,-6.08 -84.35,-11.51 -125.32,-16.28 -0.62,-0.08 -1.22,-0.11 -1.84,-0.11 z m -628.43,-20.02 c -0.4,0 -0.81,0 -1.25,0.02 -43.62,3.4 -86.07,8.04 -126.18,13.78 -8.57,1.22 -14.51,9.16 -13.29,17.73 1.22,8.55 9.34,14.34 17.74,13.29 39.44,-5.64 81.23,-10.2 124.19,-13.52 8.62,-0.69 15.07,-8.22 14.41,-16.86 -0.64,-8.22 -7.52,-14.44 -15.62,-14.44 z m 377.51,-1.99 c -8.24,0 -15.15,6.45 -15.61,14.79 -0.48,8.63 6.12,16.03 14.77,16.51 40.54,2.3 82.64,5.33 125.14,9.08 8.4,0.9 16.25,-5.61 16.99,-14.23 0.77,-8.62 -5.61,-16.23 -14.24,-16.99 -42.83,-3.78 -85.25,-6.87 -126.15,-9.14 -0.28,-0.02 -0.58,-0.02 -0.9,-0.02 z m -181.51,-5.26 c -23.94,0 -47.51,0.28 -70.64,0.87 -8.66,0.2 -15.49,7.4 -15.27,16.07 0.21,8.52 7.2,15.26 15.67,15.26 0.12,0 0.25,0 0.41,0 40.46,-1.02 82.17,-1.12 125.21,-0.33 9.75,0.51 15.82,-6.72 15.98,-15.36 0.17,-8.68 -6.71,-15.82 -15.36,-15.97 -18.91,-0.36 -37.58,-0.54 -56,-0.54" /><path
         id="path218"
         style="fill:#445eea;fill-opacity:1;fill-rule:nonzero;stroke:none"
         d="m 4967.52,3719.49 h 837.84 c 104.73,0 189.63,-84.91 189.63,-189.64 v -432.14 c 0,-104.73 -84.9,-189.63 -189.63,-189.63 H 5257.48 L 5060.42,2734.2 v 173.88 h -92.9 c -104.74,0 -189.64,84.9 -189.64,189.63 v 432.14 c 0,104.73 84.9,189.64 189.64,189.64" /><path
         id="path220"
         style="fill:#91a8f6;fill-opacity:1;fill-rule:nonzero;stroke:none"
         d="m 5089.39,3452.05 h 594.09 c 13.12,0 23.76,10.64 23.76,23.77 0,13.12 -10.64,23.77 -23.76,23.77 h -594.09 c -13.11,0 -23.76,-10.65 -23.76,-23.77 0,-13.13 10.65,-23.77 23.76,-23.77" /><path
         id="path222"
         style="fill:#91a8f6;fill-opacity:1;fill-rule:nonzero;stroke:none"
         d="m 5089.39,3293.63 h 594.09 c 13.12,0 23.76,10.65 23.76,23.77 0,13.13 -10.64,23.78 -23.76,23.78 h -594.09 c -13.11,0 -23.76,-10.65 -23.76,-23.78 0,-13.12 10.65,-23.77 23.76,-23.77" /><path
         id="path224"
         style="fill:#91a8f6;fill-opacity:1;fill-rule:nonzero;stroke:none"
         d="m 5596.35,3135.21 h 87.13 c 13.12,0 23.76,10.65 23.76,23.78 0,13.12 -10.64,23.77 -23.76,23.77 h -87.13 c -13.13,0 -23.76,-10.65 -23.76,-23.77 0,-13.13 10.63,-23.78 23.76,-23.78" /><path
         id="path226"
         style="fill:#91a8f6;fill-opacity:1;fill-rule:nonzero;stroke:none"
         d="m 5398.32,3135.21 h 87.13 c 13.12,0 23.76,10.65 23.76,23.78 0,13.12 -10.64,23.77 -23.76,23.77 h -87.13 c -13.12,0 -23.77,-10.65 -23.77,-23.77 0,-13.13 10.65,-23.78 23.77,-23.78" /><path
         id="path228"
         style="fill:#91a8f6;fill-opacity:1;fill-rule:nonzero;stroke:none"
         d="m 5089.39,3135.21 h 198.04 c 13.12,0 23.76,10.65 23.76,23.78 0,13.12 -10.64,23.77 -23.76,23.77 h -198.04 c -13.11,0 -23.76,-10.65 -23.76,-23.77 0,-13.13 10.65,-23.78 23.76,-23.78" /><path
         id="path230"
         style="fill:#91a8f6;fill-opacity:1;fill-rule:nonzero;stroke:none"
         d="M 4861.54,2856.5 H 4220.2 c -63.08,0 -114.2,-51.13 -114.2,-114.2 v -369.83 c 0,-60.25 46.68,-109.49 105.84,-113.78 l -132.25,-216.71 348.54,216.28 h 433.41 c 63.07,0 114.2,51.13 114.2,114.21 v 369.83 c 0,63.07 -51.13,114.2 -114.2,114.2" /><path
         id="path232"
         style="fill:#445eea;fill-opacity:1;fill-rule:nonzero;stroke:none"
         d="m 4616.8,2647.12 c 0,-41.93 -34,-75.93 -75.93,-75.93 -41.93,0 -75.93,34 -75.93,75.93 0,41.93 34,75.93 75.93,75.93 41.93,0 75.93,-34 75.93,-75.93" /><path
         id="path234"
         style="fill:none;stroke:#445eea;stroke-width:27.61100006;stroke-linecap:round;stroke-linejoin:round;stroke-miterlimit:10;stroke-dasharray:none;stroke-opacity:1"
         d="m 4616.8,2647.12 c 0,-41.93 -34,-75.93 -75.93,-75.93 -41.93,0 -75.93,34 -75.93,75.93 0,41.93 34,75.93 75.93,75.93 41.93,0 75.93,-34 75.93,-75.93 z" /><path
         id="path236"
         style="fill:#445eea;fill-opacity:1;fill-rule:nonzero;stroke:none"
         d="M 4720.34,2391.72 H 4361.4 v 0 c 0,63.53 51.5,115.04 115.05,115.04 h 128.84 c 63.54,0 115.05,-51.51 115.05,-115.04 v 0" /><path
         id="path238"
         style="fill:none;stroke:#445eea;stroke-width:27.61100006;stroke-linecap:round;stroke-linejoin:round;stroke-miterlimit:10;stroke-dasharray:none;stroke-opacity:1"
         d="M 4720.34,2391.72 H 4361.4 v 0 c 0,63.53 51.5,115.04 115.05,115.04 h 128.84 c 63.54,0 115.05,-51.51 115.05,-115.04 z" /><path
         id="path240"
         style="fill:#445eea;fill-opacity:1;fill-rule:nonzero;stroke:none"
         d="m 3959.7,4016.89 c -5.81,0 -11.4,3.27 -14.1,8.88 -3.78,7.8 -0.52,17.16 7.29,20.91 33.16,16.03 68.65,25.88 105.47,29.32 8.34,0.79 16.25,-5.54 17.07,-14.16 0.79,-8.62 -5.54,-16.25 -14.16,-17.07 -33.07,-3.09 -64.96,-11.94 -94.76,-26.3 -2.19,-1.07 -4.51,-1.58 -6.81,-1.58 z m 297.68,-24.98 c -3.14,0 -6.3,0.92 -9.06,2.88 -27.01,19.21 -56.96,33.3 -88.98,41.85 -8.37,2.24 -13.34,10.84 -11.13,19.18 2.28,8.34 10.76,13.34 19.19,11.12 35.67,-9.51 69.01,-25.2 99.08,-46.58 7.07,-5.03 8.71,-14.8 3.71,-21.86 -3.06,-4.32 -7.89,-6.59 -12.81,-6.59 z M 3817.8,3869.53 c -2.09,0 -4.24,0.43 -6.28,1.32 -7.93,3.48 -11.55,12.71 -8.08,20.64 14.71,33.76 35.2,64.4 60.87,90.98 5.97,6.3 15.92,6.43 22.15,0.41 6.25,-6 6.42,-15.92 0.41,-22.14 -23.07,-23.93 -41.46,-51.44 -54.7,-81.8 -2.58,-5.89 -8.32,-9.41 -14.37,-9.41 z m 555,-46.64 c -7.04,0 -13.44,4.77 -15.2,11.91 -7.99,32.18 -21.52,62.36 -40.27,89.76 -4.89,7.14 -3.05,16.91 4.09,21.79 7.12,4.94 16.89,3.08 21.78,-4.08 20.87,-30.52 35.95,-64.12 44.81,-99.91 2.09,-8.42 -3.04,-16.92 -11.44,-18.99 -1.27,-0.32 -2.55,-0.48 -3.77,-0.48 z m -566.43,-157.67 c -6.71,0 -12.9,4.34 -14.97,11.08 -9.09,29.46 -13.68,60.18 -13.7,91.33 0,5.84 0.15,11.61 0.48,17.35 0.48,8.65 8.34,15.1 16.54,14.75 8.62,-0.49 15.25,-7.89 14.74,-16.54 -0.28,-5.12 -0.44,-10.33 -0.44,-15.53 0.03,-28.04 4.19,-55.67 12.33,-82.13 2.55,-8.26 -2.09,-17.04 -10.36,-19.59 -1.53,-0.49 -3.09,-0.72 -4.62,-0.72 z m 556.76,-15.56 c -1.81,0 -3.65,0.34 -5.46,0.99 -8.11,3.02 -12.25,12.05 -9.23,20.16 11.47,30.92 17.32,63.5 17.32,96.85 0,8.64 7.01,15.66 15.67,15.66 8.64,0 15.66,-7.02 15.66,-15.66 0,-37.07 -6.48,-73.35 -19.27,-107.77 -2.34,-6.3 -8.34,-10.23 -14.69,-10.23 z m -432.2,-146.67 c -2.83,0 -5.74,0.76 -8.32,2.4 -31.18,19.62 -58.4,44.41 -80.93,73.68 -5.28,6.86 -4,16.71 2.86,21.99 6.89,5.26 16.73,3.98 21.99,-2.86 20.26,-26.33 44.75,-48.62 72.76,-66.28 7.35,-4.62 9.54,-14.28 4.93,-21.61 -2.99,-4.74 -8.1,-7.32 -13.29,-7.32 z m 298.75,-8.42 c -5.54,0 -10.87,2.93 -13.75,8.09 -4.19,7.57 -1.44,17.12 6.12,21.33 28.98,16.02 54.64,36.91 76.36,62.09 5.63,6.56 15.55,7.27 22.09,1.64 6.55,-5.64 7.29,-15.54 1.63,-22.1 -24.11,-27.98 -52.68,-51.23 -84.87,-69.08 -2.44,-1.33 -5.03,-1.97 -7.58,-1.97 z m -142.29,-36.61 c -21.23,0 -42.51,2.17 -63.19,6.43 -8.5,1.76 -13.94,10.05 -12.2,18.52 1.76,8.53 10.24,13.73 18.53,12.2 32.21,-6.66 66.15,-7.56 98.4,-2.73 8.57,1.19 16.53,-4.65 17.83,-13.19 1.28,-8.57 -4.62,-16.53 -13.2,-17.84 -15.12,-2.24 -30.66,-3.39 -46.17,-3.39" /><path
         id="path242"
         style="fill:#445eea;fill-opacity:1;fill-rule:nonzero;stroke:none"
         d="m 4087.39,3916.53 c -113.47,0 -205.47,-60.81 -205.47,-135.84 0,-0.12 0,-0.25 0,-0.38 0.09,-19.58 15.54,-33.01 29.98,-26.84 l 53.94,23.01 c 12.98,5.55 19.28,24.44 13.45,40.36 l -6.63,18.09 c 0,0 99.11,-17.66 228.72,0 l -6.7,-23.22 c -4.23,-14.69 1.26,-31.08 12.48,-37.2 l 53.34,-29.11 c 12.97,-7.09 28.11,2.42 31.09,20.13 0.84,4.98 1.27,10.04 1.27,15.16 0,75.03 -91.99,135.84 -205.47,135.84" /><path
         id="path244"
         style="fill:#91a8f6;fill-opacity:1;fill-rule:nonzero;stroke:none"
         d="m 4229.71,3618.77 h -284.78 l 42.2,132.22 c 7.91,24.78 30.94,41.61 56.96,41.61 h 86.47 c 26.01,0 49.04,-16.83 56.96,-41.61 l 42.19,-132.22" /><path
         id="path246"
         style="fill:#445eea;fill-opacity:1;fill-rule:nonzero;stroke:none"
         d="m 5795.18,2406.47 c -5.82,0 -11.41,3.26 -14.12,8.87 -3.77,7.8 -0.5,17.17 7.3,20.92 33.19,16.03 68.7,25.87 105.5,29.29 8.83,0.79 16.27,-5.59 17.06,-14.16 0.79,-8.63 -5.56,-16.27 -14.16,-17.06 -33.06,-3.07 -64.95,-11.9 -94.78,-26.28 -2.19,-1.08 -4.51,-1.58 -6.8,-1.58 z m 297.67,-25.08 c -3.13,0 -6.3,0.91 -9.06,2.88 -27.06,19.26 -57.01,33.35 -88.99,41.86 -8.36,2.25 -13.34,10.84 -11.12,19.19 2.25,8.34 10.77,13.24 19.19,11.13 35.62,-9.53 68.96,-25.21 99.09,-46.62 7.06,-5.03 8.69,-14.79 3.69,-21.86 -3.05,-4.32 -7.88,-6.58 -12.8,-6.58 z m -439.61,-122.31 c -2.09,0 -4.23,0.43 -6.27,1.32 -7.94,3.48 -11.56,12.72 -8.09,20.65 14.77,33.77 35.26,64.39 60.9,90.97 5.97,6.33 15.92,6.43 22.14,0.41 6.25,-5.99 6.43,-15.92 0.41,-22.15 -23.03,-23.9 -41.45,-51.43 -54.72,-81.78 -2.58,-5.9 -8.34,-9.42 -14.37,-9.42 z m 555.03,-46.67 c -7.04,0 -13.45,4.78 -15.2,11.92 -7.99,32.14 -21.54,62.33 -40.27,89.73 -4.89,7.14 -3.05,16.92 4.08,21.79 7.15,4.94 16.9,3.06 21.79,-4.08 20.87,-30.49 35.95,-64.12 44.81,-99.88 2.09,-8.4 -3.04,-16.92 -11.44,-18.99 -1.27,-0.33 -2.55,-0.49 -3.77,-0.49 z m -566.5,-157.61 c -6.71,0 -12.91,4.34 -14.98,11.07 -9.08,29.47 -13.67,60.18 -13.67,91.31 0,5.82 0.15,11.58 0.48,17.32 0.48,8.65 9.03,15.24 16.51,14.78 8.64,-0.49 15.25,-7.88 14.76,-16.51 -0.27,-5.18 -0.43,-10.39 -0.43,-15.59 0,-27.98 4.13,-55.62 12.3,-82.07 2.55,-8.26 -2.09,-17.04 -10.35,-19.59 -1.54,-0.49 -3.1,-0.72 -4.62,-0.72 z m 556.77,-15.61 c -1.8,0 -3.64,0.33 -5.45,1 -8.11,3 -12.25,12.04 -9.23,20.14 11.47,30.93 17.31,63.51 17.31,96.85 0,8.65 7.02,15.66 15.68,15.66 8.64,0 15.66,-7.01 15.66,-15.66 0,-37.07 -6.48,-73.34 -19.27,-107.77 -2.34,-6.32 -8.34,-10.22 -14.7,-10.22 z m -432.17,-146.65 c -2.83,0 -5.74,0.77 -8.32,2.4 -31.17,19.64 -58.4,44.45 -80.9,73.68 -5.28,6.86 -4.01,16.71 2.86,22 6.88,5.25 16.71,3.97 21.99,-2.87 20.23,-26.32 44.72,-48.62 72.74,-66.28 7.34,-4.61 9.54,-14.28 4.92,-21.61 -2.99,-4.74 -8.09,-7.32 -13.29,-7.32 z m 298.73,-8.45 c -5.54,0 -10.87,2.94 -13.73,8.1 -4.21,7.57 -1.48,17.12 6.09,21.3 28.99,16.07 54.68,36.96 76.37,62.12 5.63,6.56 15.54,7.3 22.09,1.64 6.55,-5.65 7.29,-15.54 1.63,-22.1 -24.08,-27.96 -52.66,-51.2 -84.88,-69.07 -2.43,-1.34 -5.02,-1.99 -7.57,-1.99 z m -142.27,-36.58 c -21.33,0 -42.6,2.17 -63.27,6.46 -8.47,1.78 -13.93,10.07 -12.17,18.54 1.79,8.48 10.21,13.81 18.56,12.18 32.12,-6.72 66.25,-7.58 98.37,-2.74 8.57,1.18 16.53,-4.62 17.83,-13.19 1.28,-8.56 -4.61,-16.53 -13.19,-17.83 -15.05,-2.25 -30.59,-3.39 -46.13,-3.42" /><path
         id="path248"
         style="fill:#91a8f6;fill-opacity:1;fill-rule:nonzero;stroke:none"
         d="m 6102.62,2006.26 h -364.51 v 206.7 h 364.51 v -206.7" /><path
         id="path250"
         style="fill:#445eea;fill-opacity:1;fill-rule:nonzero;stroke:none"
         d="m 6052.64,2229.35 v 25.29 c 0,18.62 15.09,33.72 33.71,33.72 v 0 c 18.62,0 33.72,-15.1 33.72,-33.72 v -41.93 h -67.43" /><path
         id="path252"
         style="fill:#e0eef7;fill-opacity:1;fill-rule:nonzero;stroke:none"
         d="m 6053.3,2255.13 v -214.85 h -248.51 v 214.85 c 0,18.61 15.09,33.71 33.71,33.71 h 245.71 l -6.83,-1.42 c -13.92,-4.15 -24.08,-17.03 -24.08,-32.29" /><path
         id="path254"
         style="fill:#445eea;fill-opacity:1;fill-rule:nonzero;stroke:none"
         d="m 5820.24,2253.86 v -56.57 h 55.1 v 56.57 h -55.1" /><path
         id="path256"
         style="fill:none;stroke:#445eea;stroke-width:6.57587004;stroke-linecap:round;stroke-linejoin:round;stroke-miterlimit:10;stroke-dasharray:none;stroke-opacity:1"
         d="m 5892.23,2254.18 h 140.08" /><path
         id="path258"
         style="fill:none;stroke:#445eea;stroke-width:6.57587004;stroke-linecap:round;stroke-linejoin:round;stroke-miterlimit:10;stroke-dasharray:none;stroke-opacity:1"
         d="m 5892.23,2235.13 h 140.08" /><path
         id="path260"
         style="fill:none;stroke:#445eea;stroke-width:6.57587004;stroke-linecap:round;stroke-linejoin:round;stroke-miterlimit:10;stroke-dasharray:none;stroke-opacity:1"
         d="m 5892.23,2216.07 h 140.08" /><path
         id="path262"
         style="fill:none;stroke:#445eea;stroke-width:6.57587004;stroke-linecap:round;stroke-linejoin:round;stroke-miterlimit:10;stroke-dasharray:none;stroke-opacity:1"
         d="m 5893.54,2197.02 h 140.09" /><path
         id="path264"
         style="fill:none;stroke:#445eea;stroke-width:6.57587004;stroke-linecap:round;stroke-linejoin:round;stroke-miterlimit:10;stroke-dasharray:none;stroke-opacity:1"
         d="m 5820.24,2178.24 h 212.07" /><path
         id="path266"
         style="fill:none;stroke:#445eea;stroke-width:6.57587004;stroke-linecap:round;stroke-linejoin:round;stroke-miterlimit:10;stroke-dasharray:none;stroke-opacity:1"
         d="m 5820.24,2159.19 h 212.07" /><path
         id="path268"
         style="fill:none;stroke:#445eea;stroke-width:6.57587004;stroke-linecap:round;stroke-linejoin:round;stroke-miterlimit:10;stroke-dasharray:none;stroke-opacity:1"
         d="m 5820.24,2140.56 h 212.07" /><path
         id="path270"
         style="fill:none;stroke:#445eea;stroke-width:6.57587004;stroke-linecap:round;stroke-linejoin:round;stroke-miterlimit:10;stroke-dasharray:none;stroke-opacity:1"
         d="m 5820.24,2121.5 h 103.07" /><path
         id="path272"
         style="fill:#445eea;fill-opacity:1;fill-rule:nonzero;stroke:none"
         d="m 6013.07,2006.26 h -274.96 v 206.7 z" /><path
         id="path274"
         style="fill:#445eea;fill-opacity:1;fill-rule:nonzero;stroke:none"
         d="m 5827.66,2006.26 h 274.96 v 206.7 z" /><path
         id="path276"
         style="fill:#445eea;fill-opacity:1;fill-rule:nonzero;stroke:none"
         d="m 6102.62,2006.26 h -364.51 l 163.71,87.43 c 11.15,7.74 25.93,7.74 37.09,0 l 163.71,-87.43" /><path
         id="path278"
         style="fill:#1d262d;fill-opacity:1;fill-rule:nonzero;stroke:none"
         d="m 3851.04,345.352 c -4.32,-4.43 -8.03,-9.313 -11.08,-14.532 l -4.65,2.41 c -0.67,2.969 -3.49,5.02 -6.59,4.661 -3.31,-0.391 -5.67,-3.391 -5.29,-6.7 0.39,-3.312 3.39,-5.671 6.7,-5.281 0.65,0.07 1.27,0.25 1.83,0.52 l 4.51,-2.348 c -2.51,-5.543 -4.32,-11.383 -5.39,-17.434 l 7.47,-1.316 c 2.3,13.059 8.5,25.066 17.92,34.727 l -5.43,5.293" /><path
         id="path280"
         style="fill:#1d262d;fill-opacity:1;fill-rule:nonzero;stroke:none"
         d="m 3905.92,368.371 c -1.71,0 -3.41,-0.062 -5.09,-0.172 l -0.74,6.262 c 1.87,1.5 2.96,3.891 2.65,6.449 -0.45,3.922 -4.02,6.742 -7.95,6.281 -3.93,-0.461 -6.74,-4.031 -6.27,-7.961 0.3,-2.539 1.89,-4.609 4.04,-5.64 l 0.73,-6.238 c -7.14,-1.161 -14.02,-3.321 -20.59,-6.454 l 3.27,-6.847 c 9.34,4.48 19.41,6.738 29.95,6.738 4.97,0 9.93,-0.527 14.75,-1.578 l 1.61,7.41 c -5.36,1.16 -10.85,1.75 -16.36,1.75" /><path
         id="path282"
         style="fill:#1d262d;fill-opacity:1;fill-rule:nonzero;stroke:none"
         d="m 3971.94,342.898 c 3.31,0.403 5.67,3.411 5.26,6.723 -0.4,3.309 -3.41,5.66 -6.72,5.25 -3.1,-0.379 -5.35,-3.031 -5.3,-6.082 l -4.16,-3.629 c -4.18,4.289 -8.9,8.121 -14.08,11.391 l -4.04,-6.41 c 11.35,-7.149 20.21,-17.27 25.64,-29.25 l 6.9,3.121 c -2.51,5.539 -5.67,10.718 -9.42,15.449 l 4.02,3.508 c 0.61,-0.117 1.25,-0.16 1.9,-0.071" /><path
         id="path284"
         style="fill:#1d262d;fill-opacity:1;fill-rule:nonzero;stroke:none"
         d="m 3900.45,266.289 c -3.86,-0.238 -7.75,-0.348 -11.57,-0.348 -8.8,0 -17.34,0.598 -24.79,1.789 -3.9,0.622 -8.46,1.551 -12.7,2.918 10.47,-18.609 30.69,-31.25 53.88,-31.25 28.56,0 52.63,19.161 59.5,45.032 -6.82,-4.489 -15.05,-8.25 -24.58,-11.219 -11.8,-3.68 -25.55,-6.07 -39.74,-6.922" /><path
         id="path286"
         style="fill:#1d262d;fill-opacity:1;fill-rule:nonzero;stroke:none"
         d="m 3931.7,297.141 c -7.5,0 -13.6,6.101 -13.6,13.601 0,7.5 6.1,13.61 13.6,13.61 7.5,0 13.6,-6.11 13.6,-13.61 0,-7.5 -6.1,-13.601 -13.6,-13.601 z m -47.37,-9.082 c -10.2,0 -18.5,8.3 -18.5,18.492 0,10.211 8.3,18.508 18.5,18.508 10.19,0 18.49,-8.297 18.49,-18.508 0,-10.192 -8.3,-18.492 -18.49,-18.492 z m 21.59,65.14 c -33.52,0 -60.79,-26.66 -60.79,-59.429 0,-4.25 0.46,-8.489 1.36,-12.61 6.74,-4.828 27.06,-8.898 53.48,-7.308 28.8,1.738 52.97,9.578 66.72,21.589 -0.05,1.938 -0.21,3.899 -0.45,5.809 -3.8,29.621 -29.74,51.949 -60.32,51.949" /><path
         id="path288"
         style="fill:#1d262d;fill-opacity:1;fill-rule:nonzero;stroke:none"
         d="m 4065.96,334.531 c -2.95,1.16 -8.06,3.098 -13.83,2.379 -5.51,-0.691 -8.44,-3.398 -8.44,-10.058 v -8.672 h 22.29 v -17.16 h -22.29 v -54.559 h -19.31 v 54.559 h -13.39 v 17.16 h 13.39 v 8.89 c 0,16.801 8.95,27.821 25.68,27.821 6.42,0 11.57,-1.211 15.9,-3.071 v -17.289" /><path
         id="path290"
         style="fill:#1d262d;fill-opacity:1;fill-rule:nonzero;stroke:none"
         d="m 4112.98,301.219 c -1.77,0.293 -3.58,0.461 -5.26,0.461 -8.95,0 -15.09,-5.481 -15.09,-16.129 v -39.09 h -19.33 v 71.719 h 18.73 v -7.84 c 4.51,6.73 11.4,9.769 20.21,9.769 4.14,0 8.47,-1.277 10.94,-3.367 l -10.2,-15.523" /><path
         id="path292"
         style="fill:#1d262d;fill-opacity:1;fill-rule:nonzero;stroke:none"
         d="m 4138.52,289.09 h 31.74 c -1.77,9.18 -7.32,14.371 -15.61,14.371 -9.1,0 -14.44,-5.481 -16.13,-14.371 z m 51.14,-6.66 c 0,-2.219 -0.16,-4.879 -0.37,-6.508 h -50.85 c 2.07,-10.363 9.32,-14.883 18.43,-14.883 6.22,0 12.94,2.52 18.13,6.891 l 11.33,-12.43 c -8.15,-7.48 -18.51,-10.891 -30.57,-10.891 -21.98,0 -37.23,14.961 -37.23,37.532 0,22.578 14.8,37.968 36.26,37.968 20.65,0 34.79,-15.32 34.87,-37.679" /><path
         id="path294"
         style="fill:#1d262d;fill-opacity:1;fill-rule:nonzero;stroke:none"
         d="m 4215.05,289.09 h 31.75 c -1.78,9.18 -7.34,14.371 -15.62,14.371 -9.1,0 -14.43,-5.481 -16.13,-14.371 z m 51.14,-6.66 c 0,-2.219 -0.15,-4.879 -0.37,-6.508 h -50.85 c 2.07,-10.363 9.33,-14.883 18.43,-14.883 6.22,0 12.96,2.52 18.13,6.891 l 11.33,-12.43 c -8.14,-7.48 -18.5,-10.891 -30.57,-10.891 -21.99,0 -37.23,14.961 -37.23,37.532 0,22.578 14.8,37.968 36.27,37.968 20.64,0 34.78,-15.32 34.86,-37.679" /><path
         id="path296"
         style="fill:#1d262d;fill-opacity:1;fill-rule:nonzero;stroke:none"
         d="m 4292.87,282.359 c 0,-11.32 7.48,-19.757 18.44,-19.757 11.4,0 18.49,8.808 18.49,19.757 0,10.95 -7.09,19.762 -18.49,19.762 -10.96,0 -18.44,-8.441 -18.44,-19.762 z m 56.78,0 c 0,-21.539 -14.95,-37.75 -34.72,-37.75 -9.62,0 -16.43,3.782 -21.09,9.332 v -37.082 h -19.25 V 318.18 h 18.88 v -7.918 c 4.66,5.847 11.54,9.847 21.38,9.847 19.85,0 34.8,-16.207 34.8,-37.75" /><path
         id="path298"
         style="fill:#1d262d;fill-opacity:1;fill-rule:nonzero;stroke:none"
         d="m 4378.09,246.461 h -19.32 v 71.719 h 19.32 z m 2.59,95.187 c 0,-6.957 -5.41,-12.289 -12.36,-12.289 -6.96,0 -12.28,5.332 -12.28,12.289 0,6.954 5.32,12.434 12.28,12.434 6.95,0 12.36,-5.48 12.36,-12.434" /><path
         id="path300"
         style="fill:#1d262d;fill-opacity:1;fill-rule:nonzero;stroke:none"
         d="m 4410.32,292.652 27.02,25.528 h 23.69 l -34.79,-33.75 35.01,-37.969 h -23.76 l -27.17,29.019 v -29.019 h -19.31 v 106.59 h 19.31 v -60.399" /><path
         id="path302"
         style="fill:#1d262d;fill-opacity:1;fill-rule:nonzero;stroke:none"
         d="m 3094.13,266.301 v 32.078 c -3.95,6.152 -12.45,11.422 -21.24,11.422 -14.21,0 -22.7,-11.711 -22.7,-27.391 0,-15.668 8.49,-27.238 22.7,-27.238 8.79,0 17.29,4.98 21.24,11.129 z m 0,-19.192 v 10.551 c -5.27,-7.18 -13.92,-12.308 -23.88,-12.308 -18.45,0 -31.49,14.058 -31.49,37.058 0,22.559 12.89,37.211 31.49,37.211 9.53,0 18.17,-4.691 23.88,-12.449 v 37.637 h 10.99 v -97.7 h -10.99" /><path
         id="path304"
         style="fill:#1d262d;fill-opacity:1;fill-rule:nonzero;stroke:none"
         d="m 3154.04,310.539 c -15.08,0 -22.56,-12.75 -23.14,-23.59 h 46.43 c -0.14,10.551 -7.17,23.59 -23.29,23.59 z m -34.71,-27.98 c 0,20.511 14.64,37.062 34.86,37.062 21.39,0 33.97,-16.699 33.97,-37.941 v -2.778 h -57.26 c 0.88,-13.332 10.25,-24.472 25.49,-24.472 8.05,0 16.26,3.23 21.81,8.941 l 5.28,-7.18 c -7.03,-7.031 -16.55,-10.839 -28.12,-10.839 -20.95,0 -36.03,15.089 -36.03,37.207" /><path
         id="path306"
         style="fill:#1d262d;fill-opacity:1;fill-rule:nonzero;stroke:none"
         d="m 3196.07,256.48 5.72,7.911 c 4.68,-5.422 13.62,-10.102 23.29,-10.102 10.84,0 16.7,5.121 16.7,12.16 0,17.133 -43.8,6.59 -43.8,32.813 0,10.976 9.52,20.359 26.37,20.359 12.01,0 20.5,-4.539 26.22,-10.25 l -5.13,-7.621 c -4.25,5.121 -12.01,8.93 -21.09,8.93 -9.67,0 -15.68,-4.828 -15.68,-11.129 0,-15.531 43.8,-5.27 43.8,-32.809 0,-11.871 -9.52,-21.39 -27.83,-21.39 -11.57,0 -21.39,3.519 -28.57,11.128" /><path
         id="path308"
         style="fill:#1d262d;fill-opacity:1;fill-rule:nonzero;stroke:none"
         d="m 3266.68,247.109 v 70.75 h 10.99 v -70.75 z m -1.9,88.18 c 0,4.102 3.36,7.473 7.32,7.473 4.1,0 7.47,-3.371 7.47,-7.473 0,-4.098 -3.37,-7.32 -7.47,-7.32 -3.96,0 -7.32,3.222 -7.32,7.32" /><path
         id="path310"
         style="fill:#1d262d;fill-opacity:1;fill-rule:nonzero;stroke:none"
         d="m 3347.09,267.469 v 30.91 c -3.81,6.152 -12.3,11.422 -21.09,11.422 -14.21,0 -22.7,-11.27 -22.7,-26.949 0,-15.532 8.49,-26.954 22.7,-26.954 8.79,0 17.28,5.422 21.09,11.571 z m -51.26,-38.52 5.56,8.199 c 5.86,-7.027 12.89,-9.668 22.99,-9.668 11.72,0 22.71,5.711 22.71,21.239 v 10.113 c -5.13,-7.184 -13.77,-12.602 -23.73,-12.602 -18.46,0 -31.49,13.77 -31.49,36.622 0,22.707 12.89,36.769 31.49,36.769 9.52,0 18.02,-4.691 23.73,-12.449 v 10.687 h 10.99 V 249.16 c 0,-23.441 -16.41,-30.762 -33.7,-30.762 -12.01,0 -20.21,2.352 -28.55,10.551" /><path
         id="path312"
         style="fill:#1d262d;fill-opacity:1;fill-rule:nonzero;stroke:none"
         d="m 3424.14,247.109 v 46.289 c 0,12.454 -6.3,16.403 -15.82,16.403 -8.64,0 -16.85,-5.27 -20.95,-10.981 v -51.711 h -10.98 v 70.75 h 10.98 v -10.25 c 4.98,5.86 14.65,12.012 25.2,12.012 14.79,0 22.56,-7.473 22.56,-22.851 v -49.661 h -10.99" /><path
         id="path314"
         style="fill:#1d262d;fill-opacity:1;fill-rule:nonzero;stroke:none"
         d="m 3484.04,310.539 c -15.08,0 -22.56,-12.75 -23.13,-23.59 h 46.42 c -0.14,10.551 -7.17,23.59 -23.29,23.59 z m -34.71,-27.98 c 0,20.511 14.64,37.062 34.86,37.062 21.39,0 33.98,-16.699 33.98,-37.941 v -2.778 h -57.26 c 0.88,-13.332 10.24,-24.472 25.48,-24.472 8.05,0 16.26,3.23 21.82,8.941 l 5.28,-7.18 c -7.03,-7.031 -16.56,-10.839 -28.13,-10.839 -20.94,0 -36.03,15.089 -36.03,37.207" /><path
         id="path316"
         style="fill:#1d262d;fill-opacity:1;fill-rule:nonzero;stroke:none"
         d="m 3583.51,266.301 v 32.078 c -3.96,6.152 -12.46,11.422 -21.24,11.422 -14.21,0 -22.71,-11.711 -22.71,-27.391 0,-15.668 8.5,-27.238 22.71,-27.238 8.78,0 17.28,4.98 21.24,11.129 z m 0,-19.192 v 10.551 c -5.28,-7.18 -13.92,-12.308 -23.88,-12.308 -18.46,0 -31.5,14.058 -31.5,37.058 0,22.559 12.9,37.211 31.5,37.211 9.52,0 18.16,-4.691 23.88,-12.449 v 37.637 h 10.98 v -97.7 h -10.98" /><path
         id="path318"
         style="fill:#1d262d;fill-opacity:1;fill-rule:nonzero;stroke:none"
         d="m 3679,255.172 c 14.36,0 22.86,11.57 22.86,27.238 0,15.68 -8.5,27.391 -22.86,27.391 -8.64,0 -17.28,-5.27 -21.09,-11.422 v -32.078 c 3.81,-6.149 12.45,-11.129 21.09,-11.129 z m -32.08,-8.063 v 97.7 h 10.99 v -37.637 c 5.71,7.758 14.21,12.449 23.88,12.449 18.45,0 31.49,-14.652 31.49,-37.211 0,-23 -13.04,-37.058 -31.49,-37.058 -9.96,0 -18.61,5.128 -23.88,12.308 v -10.551 h -10.99" /><path
         id="path320"
         style="fill:#1d262d;fill-opacity:1;fill-rule:nonzero;stroke:none"
         d="m 3725.29,229.379 c 1.61,-0.731 4.25,-1.168 6.01,-1.168 4.83,0 8.06,1.609 10.55,7.469 l 4.68,10.699 -29.59,71.48 h 11.87 l 23.58,-58.007 23.44,58.007 h 12 l -35.44,-85.109 c -4.25,-10.238 -11.42,-14.211 -20.8,-14.352 -2.34,0 -6,0.442 -8.05,1.032 l 1.75,9.949" /></g></g></svg>